<svg xmlns="http://www.w3.org/2000/svg" viewBox="0 0 512 512">
  <defs>
    <linearGradient id="flameGrad" x1="0%" y1="100%" x2="0%" y2="0%">
      <stop offset="0%" style="stop-color:#e63946"/>
      <stop offset="100%" style="stop-color:#ff9f1c"/>
    </linearGradient>
  </defs>

  <!-- Dark background -->
  <rect width="512" height="512" rx="96" fill="#111111"/>

  <!-- Simplified open book base -->
  <path d="M100 380 L100 200 Q100 160 140 160 L240 160 L256 180 L272 160 L372 160 Q412 160 412 200 L412 380"
        fill="none" stroke="#ffffff" stroke-width="24" stroke-linecap="round" stroke-linejoin="round" opacity="0.9"/>

  <!-- Book spine -->
  <line x1="256" y1="180" x2="256" y2="380" stroke="#ffffff" stroke-width="8" opacity="0.9"/>

  <!-- Flame icon centered above book -->
  <path d="M256 60
           Q220 90 220 130
           Q220 160 256 160
           Q292 160 292 130
           Q292 90 256 60
           M256 90
           Q240 105 240 125
           Q240 145 256 145
           Q272 145 272 125
           Q272 105 256 90"
        fill="url(#flameGrad)"/>
</svg>
